<svg width="276" height="80" viewBox="0 0 276 80" fill="none" xmlns="http://www.w3.org/2000/svg">
<path d="M51.2139 24.0816C49.9146 25.557 47.239 26.7682 45.2681 26.7682H40.3133C38.3424 26.7682 37.7919 25.557 39.0911 24.0816L44.9708 17.3761C46.2701 15.9006 48.9457 14.6895 50.9166 14.6895H55.8714C57.8423 14.6895 58.3928 15.9006 57.0936 17.3761L51.2139 24.0816Z" fill="white"/>
<path d="M24.8762 43.7273C22.8172 46.0725 18.5781 47.9884 15.4621 47.9884H7.60049C4.47345 47.9884 3.60361 46.0725 5.66261 43.7273L14.9887 33.102C17.0476 30.7567 21.2868 28.8408 24.4028 28.8408H32.2644C35.3914 28.8408 36.2613 30.7567 34.2023 33.102L24.8762 43.7273Z" fill="white"/>
<path d="M82.7264 43.7154C80.6674 46.0606 76.4173 47.9875 73.2902 47.9875H65.4176C62.2906 47.9875 61.4097 46.0606 63.4687 43.7154L72.8168 33.068C74.8758 30.7228 79.1259 28.7959 82.2529 28.7959H90.1256C93.2526 28.7959 94.1334 30.7118 92.0744 33.068L82.7264 43.7154Z" fill="white"/>
<path d="M132.44 47.4935H139.96V28.2688H159.669V21.9707H112.598V28.2688H132.44V47.4935Z" fill="white"/>
<path d="M262.267 9.14355L262.278 47.4938H270.58V9.14355H262.267Z" fill="white"/>
<path d="M255.737 9.14355H247.953H243.735L210.45 47.4938H220.756L247.953 16.1574L247.964 47.4938H247.986H255.737H256.266V9.14355H255.737Z" fill="white"/>
<path d="M214.392 22.0029L198.559 40.2476L198.548 22.0029H188.946L172.419 41.0404V22.0029H164.998V47.4927H176.692L190.455 31.6373V47.4927H198.57H202.137L224.258 22.0029H214.392Z" fill="white"/>
<path d="M18.6112 62.3676L17.8845 62.9292C17.4991 62.3786 17.0366 61.8061 16.4641 61.2225C12.9847 61.9382 8.91076 62.3897 4.25325 62.5548L4 61.751C6.49942 59.8021 8.25012 57.8753 9.24108 55.9814L10.144 56.2897C9.21906 57.9524 7.69959 59.7251 5.57453 61.5969C9.27412 61.4758 12.6544 61.0794 15.7044 60.4298C15.0217 59.681 14.1188 58.8222 12.9847 57.8753L13.7555 57.3027C15.6603 58.9764 17.2789 60.661 18.5891 62.3676H18.6112ZM16.9926 70.8569H16.0567V69.8109H6.30123V70.8348H5.37633V64.2174H16.9926V70.8569ZM16.0567 68.908V65.1203H6.30123V68.908H16.0567Z" fill="white"/>
<path d="M48.7364 60.4519H45.29C45.257 60.617 45.202 60.7712 45.1249 60.9253C46.4682 61.586 47.6573 62.2907 48.6703 63.0394L48.1308 63.711C47.0738 62.9183 45.9507 62.2246 44.7725 61.63C43.9467 62.8962 42.7796 63.7771 41.2932 64.2836L40.6545 63.5899C42.5704 62.9513 43.8036 61.9053 44.3651 60.4409H41.084V59.6371H44.6184C44.7285 59.2517 44.7946 58.6902 44.8386 57.9745H43.0659C42.6475 58.4479 42.207 58.8553 41.7446 59.2077L41.0399 58.6571C42.13 57.8093 42.9668 56.9064 43.5393 55.9375L44.3541 56.2238C44.0568 56.7193 43.8476 57.0276 43.7485 57.1377H48.362V57.9635H45.7195C45.6644 58.558 45.5983 59.1196 45.5213 59.6261H48.7694V60.4299L48.7364 60.4519ZM53.6031 70.8129H52.7222V69.7669H43.4292V70.8349H42.5594V64.1845H53.6141V70.8239L53.6031 70.8129ZM52.7222 66.5738V65.0213H43.4292V66.5738H52.7222ZM52.7222 68.9191V67.3996H43.4292V68.9191H52.7222ZM55.0235 62.654H49.4411V57.1817H55.0235V62.654ZM54.1426 61.8062V57.9965H50.3329V61.8062H54.1426Z" fill="white"/>
<path d="M92.1955 66.9488H87.4279C89.1125 68.1049 90.4558 69.206 91.4578 70.23L90.8522 70.8576C90.4338 70.4392 90.0154 70.0318 89.586 69.6354C85.479 70.208 82.0657 70.5713 79.324 70.7144L79.2359 69.9877C80.348 69.3381 81.4711 68.3141 82.5832 66.9378H77.5403V66.112H92.1955V66.9378V66.9488ZM91.8872 62.2032H91.0284V59.3624H85.2478V63.1721H84.422V59.3624H78.7074V62.1481H77.8596V58.5697H84.422V57.2043H78.4542V56.4336H91.2926V57.2043H85.2478V58.5697H91.8872V62.2032ZM90.8412 64.7687H78.8946V63.9649H90.8412V64.7687ZM83.7943 62.5225C82.5281 62.8638 81.1628 63.1281 79.6984 63.3263L79.346 62.6106C81.0747 62.4124 82.44 62.1481 83.442 61.8398L83.7943 62.5115V62.5225ZM83.7063 60.7278L83.3649 61.3884C82.0987 61.025 80.8325 60.7718 79.5773 60.6507L79.8635 59.913C81.3059 60.1442 82.5942 60.4084 83.7063 60.7278ZM88.6941 68.9417C88.0114 68.3802 87.3728 67.9177 86.7672 67.5434L87.1967 66.9488H83.6842C82.5391 68.3361 81.5702 69.3161 80.7664 69.8666C83.7723 69.5803 86.4149 69.272 88.6941 68.9527V68.9417ZM90.3017 60.5846C89.1676 60.937 87.8463 61.2012 86.3378 61.3664L86.0295 60.6727C87.6811 60.4855 88.9804 60.2543 89.9163 59.946L90.2907 60.5846H90.3017ZM90.4558 62.6546L90.0814 63.3813C88.9363 63.018 87.593 62.7097 86.0736 62.4564L86.4479 61.7848C88.0004 62.016 89.3327 62.3133 90.4558 62.6546Z" fill="white"/>
<path d="M121.87 60.3219H118.676V69.1966H117.366V60.3219H114.173V59.2539H121.87V60.3219Z" fill="white"/>
<path d="M131.383 66.5954H127.21L126.274 69.1939H124.92L128.718 59.2402H129.863L133.673 69.1939H132.33L131.383 66.5954ZM127.606 65.5163H130.986L129.291 60.8588L127.606 65.5163Z" fill="white"/>
<path d="M139.498 69.1939H138.187V59.2402H139.498V69.1939Z" fill="white"/>
<path d="M147.117 66.0558L147.304 67.3661L147.579 66.188L149.55 59.2512H150.662L152.578 66.188L152.854 67.3881L153.063 66.0448L154.604 59.2402H155.926L153.514 69.1939H152.314L150.266 61.9489L150.112 61.1891L149.958 61.9489L147.833 69.1939H146.633L144.232 59.2402H145.542L147.117 66.0558Z" fill="white"/>
<path d="M165.67 66.5954H161.497L160.561 69.1939H159.207L163.005 59.2402H164.15L167.96 69.1939H166.617L165.67 66.5954ZM161.893 65.5163H165.274L163.578 60.8588L161.893 65.5163Z" fill="white"/>
<path d="M180.028 69.1939H178.707L173.697 61.5305V69.1939H172.375V59.2402H173.697L178.718 66.9367V59.2402H180.028V69.1939Z" fill="white"/>
<path d="M197.469 66.5954H193.296L192.36 69.1939H191.005L194.804 59.2402H195.949L199.759 69.1939H198.416L197.469 66.5954ZM193.703 65.5163H197.083L195.388 60.8588L193.703 65.5163Z" fill="white"/>
<path d="M205.595 69.1939H204.284V59.2402H205.595V69.1939Z" fill="white"/>
<path d="M224.93 66.0461C224.808 67.1031 224.423 67.9069 223.762 68.4795C223.113 69.052 222.243 69.3383 221.153 69.3383C219.975 69.3383 219.039 68.9199 218.323 68.0721C217.618 67.2242 217.255 66.1012 217.255 64.6918V63.7339C217.255 62.809 217.42 61.9942 217.751 61.2895C218.081 60.5848 218.543 60.0453 219.149 59.6709C219.755 59.2966 220.459 59.1094 221.252 59.1094C222.309 59.1094 223.157 59.4067 223.795 59.9902C224.434 60.5738 224.808 61.3996 224.908 62.4346H223.586C223.476 61.6418 223.223 61.0583 222.849 60.7059C222.463 60.3536 221.935 60.1664 221.252 60.1664C220.415 60.1664 219.755 60.4747 219.281 61.0913C218.808 61.7079 218.565 62.5888 218.565 63.7339V64.7028C218.565 65.7818 218.786 66.6407 219.237 67.2793C219.688 67.9179 220.316 68.2372 221.131 68.2372C221.858 68.2372 222.419 68.0721 222.805 67.7417C223.19 67.4114 223.454 66.8389 223.575 66.0131H224.897L224.93 66.0461Z" fill="white"/>
<path d="M231.117 68.1259H235.83V69.1939H229.796V59.2402H231.117V68.1148V68.1259Z" fill="white"/>
<path d="M247.611 64.5484C247.611 65.5283 247.446 66.3762 247.116 67.1029C246.786 67.8296 246.323 68.3801 245.718 68.7655C245.112 69.1508 244.418 69.338 243.615 69.338C242.811 69.338 242.139 69.1508 241.534 68.7655C240.928 68.3801 240.455 67.8296 240.124 67.1139C239.794 66.3982 239.618 65.5724 239.607 64.6365V63.9208C239.607 62.9628 239.772 62.115 240.102 61.3883C240.432 60.6506 240.906 60.0891 241.512 59.7037C242.117 59.3183 242.811 59.1201 243.604 59.1201C244.396 59.1201 245.101 59.3073 245.707 59.6927C246.312 60.078 246.786 60.6396 247.105 61.3663C247.435 62.093 247.6 62.9518 247.6 63.9208V64.5484H247.611ZM246.312 63.8988C246.312 62.7206 246.07 61.8177 245.597 61.1791C245.123 60.5515 244.462 60.2322 243.604 60.2322C242.745 60.2322 242.117 60.5515 241.644 61.1791C241.17 61.8067 240.928 62.6876 240.906 63.8107V64.5374C240.906 65.6825 241.148 66.5743 241.622 67.235C242.095 67.8956 242.767 68.2149 243.604 68.2149C244.44 68.2149 245.112 67.9066 245.574 67.29C246.037 66.6734 246.279 65.7926 246.29 64.6365V63.8988H246.312Z" fill="white"/>
<path d="M259.668 59.2512V66.0118C259.668 66.9477 259.371 67.7185 258.787 68.313C258.204 68.9076 257.411 69.2489 256.409 69.315H256.057C254.967 69.326 254.097 69.0397 253.458 68.4452C252.82 67.8506 252.478 67.0468 252.478 66.0228V59.2402H253.778V65.9788C253.778 66.6945 253.976 67.256 254.372 67.6524C254.768 68.0488 255.33 68.247 256.068 68.247C256.805 68.247 257.378 68.0488 257.774 67.6524C258.171 67.256 258.369 66.6945 258.369 65.9788V59.2402H259.69L259.668 59.2512Z" fill="white"/>
<path d="M264.81 69.1939V59.2402H267.618C268.488 59.2402 269.247 59.4274 269.908 59.8128C270.569 60.1982 271.086 60.7377 271.449 61.4424C271.813 62.1471 272 62.9618 272 63.8757V64.5144C272 65.4503 271.824 66.2761 271.461 66.9807C271.097 67.6854 270.58 68.2249 269.908 68.6103C269.236 68.9847 268.455 69.1829 267.563 69.1939H264.81ZM266.131 60.3193V68.1259H267.508C268.521 68.1259 269.302 67.8065 269.864 67.1789C270.426 66.5513 270.712 65.6484 270.712 64.4923V63.9088C270.712 62.7747 270.448 61.9048 269.919 61.2772C269.391 60.6496 268.631 60.3303 267.662 60.3193H266.131Z" fill="white"/>
<mask id="mask0_1485_53485" style="mask-type:luminance" maskUnits="userSpaceOnUse" x="27" y="9" width="65" height="39">
<path d="M80.7004 9.60449C77.5734 9.60449 73.3233 11.5314 71.2643 13.8766L61.9162 24.524C61.685 24.7882 61.4978 25.0525 61.3326 25.2947C59.1085 27.2766 55.4529 28.7961 52.6672 28.7961H47.7565C44.6294 28.7961 40.3793 30.712 38.3203 33.0682L28.9722 43.7156C26.9132 46.0609 27.7831 47.9877 30.9211 47.9877H38.7938C41.9318 47.9877 46.1709 46.0609 48.2299 43.7156L57.578 33.0682C57.7101 32.9141 57.8312 32.7599 57.9413 32.6168C60.1214 30.4807 64.0192 28.7961 66.9481 28.7961H71.7267C74.8647 28.7961 79.1039 26.8692 81.1629 24.524L90.5109 13.8766C92.5699 11.5314 91.7001 9.60449 88.562 9.60449H80.6894H80.7004Z" fill="white"/>
</mask>
<g mask="url(#mask0_1485_53485)">
<path d="M92.592 9.60449H26.9243V47.9767H92.592V9.60449Z" fill="url(#paint0_linear_1485_53485)"/>
</g>
<defs>
<linearGradient id="paint0_linear_1485_53485" x1="24.6121" y1="30.6481" x2="84.4925" y2="30.6481" gradientUnits="userSpaceOnUse">
<stop stop-color="#A982B9"/>
<stop offset="0.11" stop-color="#A982B9"/>
<stop offset="0.57" stop-color="#6980BF"/>
<stop offset="0.88" stop-color="#6FC5BD"/>
<stop offset="1" stop-color="#6FC5BD"/>
</linearGradient>
</defs>
</svg>
